# xmcd
#
# Track frame offsets: 
#        150
#        13275
#        28708
#        38698
#        55973
#        62788
#        73268
#        78338
#        95570
#        108585
#        120833
#        132080
#        146038
#        158625
#        170475
#        184438
#        194703
#        208040
#        227808
#        239163
#        248663
#
# Disc length: 3512 seconds
#
# Revision: 0
# Processed by: cddbd v1.5.1PL2 Copyright (c) Steve Scherf et al.
# Submitted via: ExactAudioCopy v0.95a3
#
DISCID=380db615
DTITLE=Kentucky Colonels - Kentucky Colonels
DYEAR=1900
DGENRE=Bluegrass
TTITLE0=New River Train
TTITLE1=Prisoner's Song
TTITLE2=White Washed Chimney
TTITLE3=Good Woman's Love
TTITLE4=Black Mountain Rag
TTITLE5=Teardrops in My Eyes
TTITLE6=Reno Ride
TTITLE7=Listen To The Mockingbird
TTITLE8=Footprints In The Snow
TTITLE9=I Am A Pilgrim
TTITLE10=Alabama Jubilee
TTITLE11=Tell Me Baby You Been Gone So Long
TTITLE12=Rawhide
TTITLE13=I'm Blue, I'm Lonesome
TTITLE14=If You Ever Gonna Love Me
TTITLE15=Used To Be
TTITLE16=Blue Moon of Kentucky
TTITLE17=Sally Goodin'
TTITLE18=Sunny Side of The Mountain
TTITLE19=How Mountain Girls Can Love
TTITLE20=Last Thing on My Mind
EXTD=
EXTT0=New River Train
EXTT1=
EXTT2=
EXTT3=
EXTT4=
EXTT5=
EXTT6=
EXTT7=
EXTT8=
EXTT9=
EXTT10=
EXTT11=
EXTT12=
EXTT13=
EXTT14=
EXTT15=
EXTT16=
EXTT17=
EXTT18=
EXTT19=
EXTT20=
PLAYORDER=
